<svg xmlns="http://www.w3.org/2000/svg" viewBox="0 0 22.7 22.7"><defs><style>.cls-1{fill:#fff;}.cls-2,.cls-4{fill:#5b3016;}.cls-2,.cls-5{isolation:isolate;}.cls-3{fill:#f4b266;}</style></defs><g id="레이어_2" data-name="레이어 2"><g id="레이어_1-2" data-name="레이어 1"><circle class="cls-1" cx="11.35" cy="11.35" r="11.35"/><path class="cls-2" d="M17.56,17.37H5.3a.41.41,0,1,1,0-.81H17.56a.41.41,0,1,1,0,.81Z"/><path class="cls-3" d="M16.69,10l-.26,5.24a2.32,2.32,0,0,1-.32,1.14A1.48,1.48,0,0,1,15,17H7.66a1.43,1.43,0,0,1-.74-.58c-.38-.51-.31-.79-.31-.79a1.69,1.69,0,0,1-.11-.67c0-.58-.31-6.38-.31-6.38H16.8Z"/><path class="cls-4" d="M14.77,17.37H7.52a1.73,1.73,0,0,1-1-.72,1.61,1.61,0,0,1-.4-.95,3,3,0,0,1-.1-.7c0-.56-.29-6-.3-6.27l0-.42H17l-.13,1.86-.26,5.14a2.47,2.47,0,0,1-.42,1.36A1.82,1.82,0,0,1,14.77,17.37Zm-7.12-.8h7.12a1,1,0,0,0,.82-.44,1.86,1.86,0,0,0,.21-.85l.26-5.17.07-1H6.57c.07,1.32.26,5.37.28,5.84a3.39,3.39,0,0,0,.06.47l0,.27a1.06,1.06,0,0,0,.24.47A1.07,1.07,0,0,0,7.65,16.57Z"/><g class="cls-5"><path class="cls-3" d="M6.1,8.69A1.33,1.33,0,0,1,4.84,7.24,1.44,1.44,0,0,1,6.1,5.74H16.65a1.49,1.49,0,0,1,1.22,1.47A1.47,1.47,0,0,1,16.7,8.69Z"/><path class="cls-4" d="M16.74,9.1H6.1A1.74,1.74,0,0,1,4.43,7.24,1.83,1.83,0,0,1,6.06,5.33H16.72a1.88,1.88,0,0,1,1.55,1.88,1.85,1.85,0,0,1-1.49,1.88ZM6.11,8.28H16.66a1,1,0,0,0,.8-1.07,1.06,1.06,0,0,0-.85-1.07H6.13a1,1,0,0,0-.89,1.1A.92.92,0,0,0,6.11,8.28Z"/></g></g></g></svg>