<svg xmlns="http://www.w3.org/2000/svg" viewBox="0 0 22.87 22.78"><defs><style>.cls-1{fill:#c9caca;}.cls-2{fill:#4b83c4;}.cls-3{fill:#3c1900;}.cls-4{fill:#fff;opacity:0.5;}</style></defs><g id="레이어_2" data-name="레이어 2"><g id="레이어_1-2" data-name="레이어 1"><path class="cls-1" d="M9.42,17.06l.18-.14L21.41,5.11a2.58,2.58,0,0,0-3.65-3.65L6,13.27a.48.48,0,0,0-.09.11,4.39,4.39,0,1,0,3.56,3.68Z"/><path class="cls-2" d="M9.26,17.22l.18-.14,6.19-6.19A2.58,2.58,0,0,0,12,7.24L5.79,13.43a.48.48,0,0,0-.09.11,4.39,4.39,0,1,0,3.56,3.68Z"/><path class="cls-3" d="M1.49,21.29a5.09,5.09,0,0,1,4.1-8.66L17.26,1a3.29,3.29,0,0,1,4.65,4.65L10.16,17.35a5.08,5.08,0,0,1-8.67,3.94ZM20.91,2a1.89,1.89,0,0,0-2.66,0L6.45,13.77a.5.5,0,0,0-.07.08.71.71,0,0,1-.65.22,3.67,3.67,0,1,0,3,3.09A.69.69,0,0,1,9,16.52l.09-.07L20.91,4.61A1.88,1.88,0,0,0,20.91,2Z"/><ellipse class="cls-4" cx="4.79" cy="15.81" rx="1.23" ry="1.08" transform="translate(-2.55 1.01) rotate(-9.52)"/></g></g></svg>