<svg xmlns="http://www.w3.org/2000/svg" viewBox="0 0 212.26 25.16"><defs><style>.cls-1{fill:#fff;opacity:0.5;}.cls-2{fill:#5b3016;}.cls-3{isolation:isolate;}.cls-4{fill:#2fa486;}.cls-5{fill:#76b242;}</style></defs><g id="레이어_2" data-name="레이어 2"><g id="레이어_1-2" data-name="레이어 1"><rect class="cls-1" width="212.26" height="25.16" rx="12.58"/><path class="cls-2" d="M17.16,23.69a.86.86,0,0,1-.82-.69c-1.08-5.19,2.13-13.07,2.27-13.4a.82.82,0,0,1,1.1-.46.9.9,0,0,1,.44,1.16C20.12,10.37,17,18,18,22.62a.9.9,0,0,1-.65,1.05Z"/><g class="cls-3"><path class="cls-4" d="M20.42,9.51l2.85,2.15c-.52-.25,3.41,2,4.22,2,1.11,0,3-.85,3.24-2.56a3.73,3.73,0,0,0-1.91-3.73c-1-.35-3.42.21-4.13.52S20.42,9.51,20.42,9.51Z"/><path class="cls-2" d="M19.57,9.39a.86.86,0,0,1,.55-.69c1.23-.45,3.69-1.38,4.23-1.61s3.42-1,4.76-.54a4.59,4.59,0,0,1,2.48,4.65c-.29,2.19-2.6,3.27-4.08,3.31a16.67,16.67,0,0,1-4.59-2.07h0l-.13-.09h0L19.9,10.2a.91.91,0,0,1-.25-.3A.8.8,0,0,1,19.57,9.39Zm7.9,3.39c.73,0,2.25-.58,2.41-1.8a3,3,0,0,0-1.34-2.81,8.38,8.38,0,0,0-3.5.49c-.41.19-1.76.7-2.84,1.11L23.79,11l.05,0A22.22,22.22,0,0,0,27.47,12.78Z"/></g><g class="cls-3"><path class="cls-5" d="M18.7,9.59,17.15,6.38C17.49,6.83,15,3,14.31,2.67c-1-.48-3.07-.63-4.05.79a3.73,3.73,0,0,0,0,4.19C11,8.41,13.38,9,14.15,9.08S18.7,9.59,18.7,9.59Z"/><path class="cls-2" d="M18.59,10.44c-1.3-.15-3.91-.46-4.49-.5s-3.51-.66-4.49-1.7A4.6,4.6,0,0,1,9.55,3c1.25-1.82,3.8-1.72,5.13-1.08a16.5,16.5,0,0,1,3.14,3.94l0,0h0l.08.14h0l1.55,3.21a.87.87,0,0,1-.07.88.85.85,0,0,1-.54.34A.81.81,0,0,1,18.59,10.44Zm-4.65-7c-.67-.32-2.28-.51-3,.5a3,3,0,0,0-.09,3.11A8.21,8.21,0,0,0,14.2,8.22c.46,0,1.89.19,3,.33l-.87-1.8,0-.07A23,23,0,0,0,13.94,3.45Z"/></g></g></g></svg>