<svg xmlns="http://www.w3.org/2000/svg" viewBox="0 0 431.66 436.89"><defs><style>.cls-1{fill:#fff;}</style></defs><g id="레이어_2" data-name="레이어 2"><g id="leaf-border"><path id="nbn--leaf" class="cls-1" d="M19.15,212.24C35,174,50.81,151,99.52,118.31,175.7,67.16,231.65,88.89,308,63.08c58.16-19.65,81.61-47,98.84-60.39,5.52-4.28,18.77-3.84,23.21,4.11C441.33,26.89,389,194.22,370,241.14c-20.09,49.46-77.14,118.53-107.36,144.52-80.73,69.42-178.79,54.28-199.88,35.22-6.57-5.94-11.1-12.35-13.28-17.41-1.77-4.11-1.61-13.1-10.84-24.52-5.23-6.47-15.17-9.32-19.47-13.42S8.56,355.1,4.56,340.24C-6.12,300.62,3.28,250.47,19.15,212.24Z"/></g></g></svg>