<svg xmlns="http://www.w3.org/2000/svg" viewBox="0 0 464.14 464.61">
<defs>
<style>#nbn--leaf{fill:#fff;}</style>
</defs>
<path id="nbn--leaf" d="M18.66,232.61c17.19-41.43,29.64-63.1,82.38-98.52C183.52,78.71,263.21,82,293.81,76.66,361.73,64.92,426.07,48.07,464.14,0c-51.35,241.09-98.84,316.66-188,402.43-95.69,73-182.41,64.19-197.58,58.51-9.21-4.3-23.86-20.05-23.78-20.72C65.56,338.11,81.91,307.29,103.69,278.7s73.5-64,97.44-74.38C258.24,179.64,311.69,165,385.41,109.4,284.11,156.32,250,160,191.5,182.55c-90.1,34.65-109.26,74.37-127,102.62S34,376.77,30.78,391.7C19.9,383.43,10.06,375,5.46,362.57-5.93,326.54,1.48,274,18.66,232.61Z"/>
</svg>