<svg xmlns="http://www.w3.org/2000/svg" viewBox="0 0 22.87 22.21"><defs><style>.cls-1{fill:#5b3016;}.cls-2{isolation:isolate;}.cls-3{fill:#2fa486;}.cls-4{fill:#76b242;}</style></defs><g id="레이어_2" data-name="레이어 2"><g id="레이어_1-2" data-name="레이어 1"><path class="cls-1" d="M8.41,22.21a.85.85,0,0,1-.82-.69C6.5,16.33,9.71,8.46,9.85,8.13A.82.82,0,0,1,11,7.67a.89.89,0,0,1,.43,1.15c0,.08-3.13,7.69-2.16,12.33a.87.87,0,0,1-.64,1A.55.55,0,0,1,8.41,22.21Z"/><g class="cls-2"><path class="cls-3" d="M11.67,8l2.84,2.14c-.51-.25,3.42,2,4.22,2,1.12,0,3-.84,3.25-2.56a3.73,3.73,0,0,0-1.91-3.72c-1-.35-3.43.2-4.13.51S11.67,8,11.67,8Z"/><path class="cls-1" d="M10.81,7.91a.87.87,0,0,1,.56-.68c1.22-.46,3.69-1.38,4.22-1.62s3.42-1,4.77-.53a4.57,4.57,0,0,1,2.47,4.65c-.28,2.18-2.6,3.26-4.07,3.31A16.55,16.55,0,0,1,14.17,11h0l-.13-.1v0L11.15,8.73a.89.89,0,0,1-.25-.3A.93.93,0,0,1,10.81,7.91Zm7.9,3.4c.74,0,2.25-.59,2.41-1.81a2.91,2.91,0,0,0-1.34-2.8,8.18,8.18,0,0,0-3.49.49c-.42.18-1.77.7-2.85,1.1L15,9.49l.06,0A22.55,22.55,0,0,0,18.71,11.31Z"/></g><g class="cls-2"><path class="cls-4" d="M9.94,8.11,8.39,4.9c.35.46-2.11-3.35-2.83-3.7C4.55.72,2.48.57,1.5,2a3.73,3.73,0,0,0,0,4.18c.71.76,3.14,1.39,3.9,1.44S9.94,8.11,9.94,8.11Z"/><path class="cls-1" d="M9.84,9c-1.3-.16-3.91-.46-4.5-.5S1.84,7.81.86,6.76A4.58,4.58,0,0,1,.79,1.5C2.05-.32,4.6-.22,5.93.42A16.55,16.55,0,0,1,9.06,4.36l0,0h0a1,1,0,0,1,.07.15h0l1.55,3.21A.87.87,0,0,1,10.11,9,.82.82,0,0,1,9.84,9ZM5.18,2c-.66-.32-2.27-.51-3,.5a2.89,2.89,0,0,0-.09,3.1A8.17,8.17,0,0,0,5.45,6.75c.45,0,1.88.19,3,.32L7.62,5.28l0-.07A23,23,0,0,0,5.18,2Z"/></g></g></g></svg>