<svg xmlns="http://www.w3.org/2000/svg" viewBox="0 0 343.01 74.54"><g id="레이어_2" data-name="레이어 2"><g id="Layer_1" data-name="Layer 1"><path d="M12.1,23.93a18.3,18.3,0,0,1-6.17-.42A5.89,5.89,0,0,1,2.2,21,12.67,12.67,0,0,1,.37,16.75,15.07,15.07,0,0,1,0,12.53,21.11,21.11,0,0,1,.57,8.87a12.08,12.08,0,0,1,1-2.68,8.24,8.24,0,0,1,1.76-2.3A3.58,3.58,0,0,1,6,3a3.41,3.41,0,0,1,1.42.47,3.53,3.53,0,0,1,1,.94,4.76,4.76,0,0,1,.61,1.12,3.05,3.05,0,0,1,.2.94Q9,9.66,9,12.62A49.46,49.46,0,0,0,9.25,18c2.71-.44,5.19-.81,7.46-1.13s4.4-.64,6.43-1,4.07-.75,6.11-1.22,4.22-1,6.57-1.74c3.25-1.06,5.33-.91,6.24.47.63,1.06.36,2-.82,2.72a31.75,31.75,0,0,1-4.33,2.25,35.23,35.23,0,0,1-4.48,1.69q-2.45.75-5,1.41a56.14,56.14,0,0,0-1,5.63q-.48,3.39-.82,6.76c-.22,2.25-.36,4.35-.4,6.29a36.35,36.35,0,0,0,.07,4.32c1-.13,2.32-.33,4-.61s3.38-.57,5.15-.85,3.45-.58,5.08-.89,3-.56,4.07-.75A18,18,0,0,1,48.36,41c1.13.13,1.78.38,2,.75a1.67,1.67,0,0,1-.14,1.46A4.39,4.39,0,0,1,49,44.53a9.59,9.59,0,0,1-1.83,1.08,17,17,0,0,1-1.83.75c-1.72.57-4,1.19-6.91,1.88s-6,1.33-9.36,1.93-6.64,1.12-9.89,1.59-6.06.8-8.41,1a14.2,14.2,0,0,1-4.27-.28A3,3,0,0,1,4,50.21a2.08,2.08,0,0,1,.68-2,4.45,4.45,0,0,1,2.44-1.26c1.17-.19,2.78-.38,4.81-.57a25.31,25.31,0,0,0,4.68-.75c0-1.62.09-3.47.27-5.53s.43-4.15.75-6.25.7-4.09,1.15-6,.9-3.55,1.35-4.93Q15.76,23.65,12.1,23.93ZM39.89,58.19a5.12,5.12,0,0,1,1.76,2.68A6.59,6.59,0,0,1,41.72,64,8.77,8.77,0,0,1,40.36,67,12.44,12.44,0,0,1,38,69.64a18.1,18.1,0,0,1-7.19,3.85,14.59,14.59,0,0,1-7.86.09,6,6,0,0,1-3.25-2.11A4.82,4.82,0,0,1,18.47,68a12.3,12.3,0,0,1,2.64-6.8,34.38,34.38,0,0,1,5.09-5.31,25.68,25.68,0,0,1,2.91-1.73,4,4,0,0,1,3.46,0,2.68,2.68,0,0,1,1.28,1.13,3,3,0,0,1,.34,1.41,6.42,6.42,0,0,1,2.92.32A13.69,13.69,0,0,1,39.89,58.19Zm-11,5.63a9.18,9.18,0,0,0-1.56,4.6,13.41,13.41,0,0,0,5-2.58,6.56,6.56,0,0,0,2.3-3.71,1.08,1.08,0,0,0-.47-1.31c-.5-.38-1-.75-1.43-1.13l-.13.1A18,18,0,0,0,28.84,63.82Z" fill="#ffffff"/><path d="M67.68,10.13A78.77,78.77,0,0,0,67.34,23a71.36,71.36,0,0,0,2.1,13.8q.14.57.27,1.5a6.23,6.23,0,0,1,0,1.83A3.12,3.12,0,0,1,69,41.67a2.22,2.22,0,0,1-1.62.75,3.81,3.81,0,0,1-2.65-.56,7.6,7.6,0,0,1-2-1.83,12.67,12.67,0,0,1-1.36-2.21A8.38,8.38,0,0,1,60.76,36a72.84,72.84,0,0,1-2.17-13.52A83.84,83.84,0,0,1,58.87,9a5.36,5.36,0,0,1,1-2,3.53,3.53,0,0,1,2.51-1.13,7.76,7.76,0,0,1,2.85.28,3.6,3.6,0,0,1,1.62,1,3.11,3.11,0,0,1,.68,1.46A8.83,8.83,0,0,1,67.68,10.13ZM95.06,73.68a5.66,5.66,0,0,1-2.3-.42,5.58,5.58,0,0,1-1.56-1,4.75,4.75,0,0,1-1-1.17,2.18,2.18,0,0,1-.34-1,50.29,50.29,0,0,1-1.22-9.71c-.09-3.29,0-6.25.14-8.87-2.54.81-5,1.61-7.26,2.39l-6.44,2.21a8.6,8.6,0,0,1-5.22.23c-1.67-.47-2.73-1.17-3.18-2.11a1.59,1.59,0,0,1,.74-2.11,18.54,18.54,0,0,1,3.6-1.83q1.49-.66,5.08-1.88c2.39-.81,5.13-1.66,8.2-2.53s6.28-1.69,9.63-2.45a82,82,0,0,1,9.49-1.59,5.73,5.73,0,0,1,3.32.56,6.48,6.48,0,0,1,2.1,1.6c.54.75.38,1.37-.47,1.88a15.79,15.79,0,0,1-3.6,1.4c-2.89.57-5.74,1.22-8.54,2a5,5,0,0,1,1.09,2.16q-.14,1.78-.21,4.23c0,1.62-.07,3.33-.07,5.11V70.86a3.91,3.91,0,0,1-.47,2A1.65,1.65,0,0,1,95.06,73.68ZM88.55,6.85a6.17,6.17,0,0,1,.68-3,6.16,6.16,0,0,1,1.7-2A6.77,6.77,0,0,1,93,.79,6.66,6.66,0,0,1,94.79.47a2.76,2.76,0,0,1,2.64,1.31,6.77,6.77,0,0,1,.75,3.38q0,3.66-.27,7.6c-.18,2.63-.46,5.2-.82,7.7a62.59,62.59,0,0,1-1.42,7.09,26.91,26.91,0,0,1-2.24,5.86A8.52,8.52,0,0,1,89,37.59a12.07,12.07,0,0,1-6.78.8A8.7,8.7,0,0,1,78.39,37a10.43,10.43,0,0,1-2.71-2.53,9.5,9.5,0,0,1-1.56-3.05,6.23,6.23,0,0,1-.21-3,10.12,10.12,0,0,1,3.8-5.92Q80.83,20,87.88,18.21c.18-1.63.31-3.4.4-5.31S88.46,9,88.55,6.85Zm-8,22.9a3.75,3.75,0,0,0,.54,1.74,2,2,0,0,0,1.62,1.08,2.24,2.24,0,0,0,2.17-1.41,30.34,30.34,0,0,0,2.17-7.23,19.16,19.16,0,0,0-2,.75,12.49,12.49,0,0,0-2.1,1.18,6.51,6.51,0,0,0-1.7,1.69A3.78,3.78,0,0,0,80.56,29.75Z" fill="#ffffff"/><path d="M125.47,22.81q-.72,5.91-1.23,11.92a61.21,61.21,0,0,0,0,11.17q4.38-1.51,8.21-3.1L140,39.61a16.69,16.69,0,0,1,4.34-1.32c1.32-.19,2.12-.12,2.39.19a1.26,1.26,0,0,1,.15,1.08,5.1,5.1,0,0,1-.61,1.5,9.32,9.32,0,0,1-1.12,1.55,6.72,6.72,0,0,1-1.38,1.22,24.45,24.45,0,0,1-3.16,2q-2.34,1.32-5.25,2.68c-1.93.9-3.89,1.7-5.86,2.39a15.59,15.59,0,0,1-5,1A7.61,7.61,0,0,1,120,50.63a7,7,0,0,1-2.5-4.36,27.83,27.83,0,0,1-.56-6.43c0-2.53.19-5,.46-7.51s.56-4.69.87-6.66a39.53,39.53,0,0,1,.76-4,5,5,0,0,1,1.28-2.16,2.11,2.11,0,0,1,2.29-.38,4.57,4.57,0,0,1,2.19,1.36A2.73,2.73,0,0,1,125.47,22.81ZM137,31.25a1.85,1.85,0,0,1-.66-1.83,3.32,3.32,0,0,1,1-1.55,20.82,20.82,0,0,1,3.57-2.34,48.68,48.68,0,0,1,5-2.35q2.76-1.12,5.71-2.06t5.61-1.6a1.45,1.45,0,0,1,.3-.94,2,2,0,0,1,.61-.66,1.82,1.82,0,0,1,1.23-.18A5.11,5.11,0,0,1,162.16,19a2.58,2.58,0,0,1,1.12,2.12c-.2,1.5-.4,3.28-.61,5.35s-.36,4.19-.46,6.38S162,37.2,162,39.33s-.1,4-.1,5.53a2.05,2.05,0,0,1-.51,1.83,2.51,2.51,0,0,1-1.63.89,2.24,2.24,0,0,1-2.09-.75,4.21,4.21,0,0,1-.87-1.69A40,40,0,0,1,155.54,36a92.75,92.75,0,0,1,.4-10.37,45.4,45.4,0,0,0-6.52,2.25q-3.27,1.41-6.42,2.91a8,8,0,0,1-1.38.57,12.09,12.09,0,0,1-1.73.42,6.36,6.36,0,0,1-1.68.05A1.83,1.83,0,0,1,137,31.25Zm40.17-13.42q-.21,3-.31,6.62c-.07,2.41-.12,4.86-.15,7.37s0,5,.05,7.51.2,4.84.41,7a2.12,2.12,0,0,1-.87,1.6,3.18,3.18,0,0,1-1.68.84,3,3,0,0,1-2.65-.61,3.71,3.71,0,0,1-.92-1.83,87.17,87.17,0,0,1-1-14.54,59.93,59.93,0,0,1,1.83-14c.34-1.13.73-1.78,1.18-2a3.69,3.69,0,0,1,1.48-.28,2.76,2.76,0,0,1,2,.84A2.23,2.23,0,0,1,177.15,17.83Z" fill="#ffffff"/><path d="M210.63,40.25a72.64,72.64,0,0,0,9.28-3.16l8.36-3.48a14.44,14.44,0,0,1,3.35-1,2,2,0,0,1,2.19.91,2.47,2.47,0,0,1-.42,3.07,12.41,12.41,0,0,1-3.07,2.71c-1.31.79-2.81,1.62-4.5,2.47s-3.43,1.68-5.22,2.47-3.55,1.45-5.27,2a26.87,26.87,0,0,1-4.63,1.09,6.13,6.13,0,0,1-2.66-.2A4.38,4.38,0,0,1,206.22,46a4.16,4.16,0,0,1-1.1-1.61,11.69,11.69,0,0,1-.58-1.9,60.19,60.19,0,0,1-.78-7.35q-.24-4.24-.24-9.17l0-1.23a3.3,3.3,0,0,0-.92.09,3.34,3.34,0,0,1-.83.08,1.62,1.62,0,0,1-1.92-1.06,4.36,4.36,0,0,1-.37-2.16,3,3,0,0,1,.9-1.87A4.85,4.85,0,0,1,202,19a7.76,7.76,0,0,1,.82-.13,2.35,2.35,0,0,0,.82-.25l.3-5.11c.1-1.71.24-3.34.4-4.91h-.51a5.33,5.33,0,0,1-1.33,0,6.46,6.46,0,0,1-1.43-.28,2.94,2.94,0,0,1-1.22-.69,2,2,0,0,1-.59-1.29A3.45,3.45,0,0,1,200,3.88a4.65,4.65,0,0,1,3-1.78,57.78,57.78,0,0,1,8.31-1q4.51-.23,8.92,0a14.9,14.9,0,0,1,4.7.91,6.34,6.34,0,0,1,1.72,1.06,1.84,1.84,0,0,1,.69,1.44,2.49,2.49,0,0,1-1.17,2,7.14,7.14,0,0,1-4,.9c-1.78.1-3.62.19-5.54.26s-3.93.18-6.05.34c-.27,3.42-.43,6.62-.48,9.63,1.57-.11,3.12-.17,4.66-.17s3.06,0,4.56.13a7.91,7.91,0,0,1,3.21,1,1.8,1.8,0,0,1,.93,2,2.79,2.79,0,0,1-1.73,2.22,11.45,11.45,0,0,1-4,.85c-1.37.11-2.7.2-4,.28s-2.53.18-3.69.29q.12,4.11.26,8.05C210.35,34.83,210.47,37.52,210.63,40.25ZM230,16.94q7.75-4.16,15.45-7.44t13.58-5.34c2.2-.71,3.93-.55,5.21.46s1.8,2.65,1.55,4.89c-.17,1.71-.3,3.64-.41,5.79s-.22,4.52-.34,7.11-.18,4.83-.18,6.71,0,3.36.07,4.46a3.26,3.26,0,0,1-.81,2.34,3,3,0,0,1-2.22,1.19,2.8,2.8,0,0,1-1.79-.45c-.57-.35-.95-1.28-1.12-2.78-.12-1.1-.2-2.55-.23-4.36s-.06-4-.08-6.61,0-4.87.07-6.81.16-3.6.25-5c-2.06.78-4.23,1.65-6.5,2.59s-4.55,1.95-6.82,3L239,19.83l-6.3,2.9a6.88,6.88,0,0,1-1.19.39,6,6,0,0,1-1.59.17,4,4,0,0,1-1.59-.13,1.68,1.68,0,0,1-1.06-.73c-.79-1.32-.81-2.44,0-3.39a4.16,4.16,0,0,1,1.2-1.1Zm5.91,51.24a3.29,3.29,0,0,1-2-1.78,4.74,4.74,0,0,1,0-3.17,38.87,38.87,0,0,1,2.22-6.42c1-2.37,2.21-4.74,3.51-7.1s2.69-4.62,4.13-6.74,2.79-4,4-5.51c2.1-2.42,4-3.34,5.69-2.76a2.55,2.55,0,0,1,1.55,2.18,4.57,4.57,0,0,1-.83,3.47c-1.34,1.82-2.67,3.79-4,5.92s-2.62,4.3-3.86,6.53-2.41,4.45-3.5,6.65-2.08,4.32-2.94,6.35a5.07,5.07,0,0,1-1.68,2A2.16,2.16,0,0,1,235.93,68.18Zm13.95-11.93a1.93,1.93,0,0,1-.64-1.24,2.33,2.33,0,0,1,.23-1.54,2.49,2.49,0,0,1,1.3-1.1,4.43,4.43,0,0,1,2.57,0,10.53,10.53,0,0,1,2.84,1.38,22.51,22.51,0,0,1,3.23,2.62,40.16,40.16,0,0,1,3.16,3.49,24.89,24.89,0,0,1,2.64,4,12.58,12.58,0,0,1,1.36,4,2.23,2.23,0,0,1-3.07,2.45,5.32,5.32,0,0,1-1.86-1.57c-.93-1.25-1.8-2.35-2.6-3.33s-1.66-1.92-2.56-2.86-1.9-1.9-3-2.88S251.22,57.5,249.88,56.25Z" fill="#ffffff"/><path d="M281.94,18.32q-.22,6.45-.35,13.41t.17,12.61a5.2,5.2,0,0,1,.41,3,1.66,1.66,0,0,1-1.92,1.35,3.89,3.89,0,0,1-3-1.75,7.35,7.35,0,0,1-1.63-3.46c-.24-1.51-.47-3.35-.66-5.54s-.33-4.55-.39-7.08-.05-5.18,0-7.94.2-5.51.46-8.24a2.59,2.59,0,0,1,.75-1.63,1.55,1.55,0,0,1,1.54-.38,6.08,6.08,0,0,1,3.19,1.85A5.09,5.09,0,0,1,281.94,18.32Zm13.61-9.89a5,5,0,0,1,.66-2.4,2.57,2.57,0,0,1,2.37-1.23A2.65,2.65,0,0,1,301,6a4.94,4.94,0,0,1,1,2.12c.16,2,.28,4.19.34,6.41s.07,4.42,0,6.61-.13,4.32-.27,6.4-.33,4-.57,5.78c-.24,1.56-.52,3.11-.86,4.64a22,22,0,0,1-1.3,4.13,9.29,9.29,0,0,1-2,3,3.84,3.84,0,0,1-2.83,1.13,6.53,6.53,0,0,1-3.77-1.2,9.14,9.14,0,0,1-2.61-2.86,13.18,13.18,0,0,1-1.47-3.67,14,14,0,0,1-.45-3.59,14.91,14.91,0,0,1,.47-3.17,15.13,15.13,0,0,1,1.5-3.76,16.3,16.3,0,0,1,2.89-3.74,16.1,16.1,0,0,1,4.52-3.09c0-2.19-.06-4.32-.09-6.41S295.51,10.55,295.55,8.43ZM291,35.19a4.78,4.78,0,0,0,.31,2.62c.36.93.91,1.4,1.66,1.41.55,0,1-.36,1.3-1.1a10.71,10.71,0,0,0,.72-2.65c.16-1.16.27-2.35.32-3.58s.13-2.46.23-3.69A11.44,11.44,0,0,0,292.72,31,11.63,11.63,0,0,0,291,35.19Zm24.13,19.3q1.44-.29,3.24-.81c1.2-.35,2.4-.72,3.61-1.11l3.5-1.11,2.94-.92a4.75,4.75,0,0,1,2.31,0A1.82,1.82,0,0,1,332,52.35,2.16,2.16,0,0,1,331,54.43a16.77,16.77,0,0,1-2.18,1.44,35.38,35.38,0,0,1-6.92,2.9q-3.92,1.2-6.9,2.07a23.92,23.92,0,0,0-.22,3.48c0,1.16,0,2.25,0,3.28a25.52,25.52,0,0,0,3.71-1c1.37-.45,2.75-1,4.12-1.51s2.72-1.13,4-1.72,2.48-1.14,3.52-1.67a16.69,16.69,0,0,1,2.68-1,1.93,1.93,0,0,1,2,.5,1.73,1.73,0,0,1,.44,1.14,3.44,3.44,0,0,1-.23,1.43,7.65,7.65,0,0,1-.69,1.37,2.84,2.84,0,0,1-.94.95,64.75,64.75,0,0,1-9.47,5.2,55.6,55.6,0,0,1-8.31,3,5.39,5.39,0,0,1-3,.09,6.14,6.14,0,0,1-2.34-1.17,6,6,0,0,1-1.5-1.77,4.78,4.78,0,0,1-.63-1.9,50.06,50.06,0,0,1-.06-5.23c.07-1.84.19-3.69.36-5.53s.41-3.61.72-5.31a34.38,34.38,0,0,1,1.11-4.59c-.56.19-1,.37-1.45.53s-.82.31-1.24.44a2.31,2.31,0,0,1-2.65-.46,2.88,2.88,0,0,1-1-2,2.93,2.93,0,0,1,1.17-2.34c.76-.6,1.56-1.16,2.39-1.69s1.89-.91,3.41-1.53,3.2-1.22,5-1.8,3.76-1.07,5.72-1.48A23.69,23.69,0,0,1,327,38a18.23,18.23,0,0,1,3.07.31,3.2,3.2,0,0,1,2.22,1.74,2.12,2.12,0,0,1,0,2.2,2.47,2.47,0,0,1-1.86,1.24c-2.54.43-5.08,1-7.62,1.6s-4.94,1.31-7.21,2c0,.48,0,1.09,0,1.85s-.05,1.5-.09,2.25-.12,1.43-.2,2A12.24,12.24,0,0,0,315.08,54.49Zm23.45-37.88c-2.26.5-4.34,1-6.23,1.42l-6.43,1.52a8.53,8.53,0,0,1-2.56.15c0,1.64.07,3.35.11,5.13s.1,3.66.2,5.64a1.72,1.72,0,0,1-.75,1.68,2.51,2.51,0,0,1-1.75.42,2.68,2.68,0,0,1-1.62-.85,7.58,7.58,0,0,1-1.2-1.61,6.86,6.86,0,0,1-.73-1.85,15.55,15.55,0,0,1-.33-1.7,82.18,82.18,0,0,1-.4-11.54,55.88,55.88,0,0,1,1.43-10.78,14.75,14.75,0,0,1,1.33-2.95,2.28,2.28,0,0,1,2-1.29,2.37,2.37,0,0,1,1.93,1.11,3.35,3.35,0,0,1,.78,2c-.17,1.91-.32,3.69-.45,5.32s-.25,3.24-.35,4.81a73.15,73.15,0,0,1,7.2-1.45,65.55,65.55,0,0,1,8.11-.72c2.8-.08,4.19.45,4.17,1.61a3.07,3.07,0,0,1-1.33,2.44A8.68,8.68,0,0,1,338.53,16.61Z" fill="#ffffff"/></g></g></svg>