<svg xmlns="http://www.w3.org/2000/svg" viewBox="0 0 32 32"><defs><style>.cls-1{fill:#555;}.cls-2{fill:none;}</style></defs><g id="레이어_2" data-name="레이어 2"><g id="leaf-border"><path class="cls-1" d="M32,5.9a1,1,0,0,0-1.08-1s-1.16.06-3.14.36V2.6a1,1,0,0,0-.45-.85C26.82,1.42,24,0,16,4,8,0,5.19,1.42,4.71,1.75a1,1,0,0,0-.46.85V5.23c-2-.3-3.1-.35-3.15-.36A1,1,0,0,0,0,5.9L0,25.71a1,1,0,0,0,.64.95c1.88.78,4.65,1,7.57,1.3l2.34.23a4.28,4.28,0,0,1,2.53,1.57,4.4,4.4,0,0,0,2.92,1,4.4,4.4,0,0,0,2.92-1,4.28,4.28,0,0,1,2.53-1.57L23.79,28c2.92-.27,5.69-.52,7.57-1.3a1,1,0,0,0,.64-.95ZM25.7,3.35V20.2A29.56,29.56,0,0,0,17,22.15V5.81C22.18,3.24,24.75,3.21,25.7,3.35Zm-19.39,0c1-.15,3.56-.1,8.67,2.45V22.15A29.72,29.72,0,0,0,6.31,20.2ZM23.6,25.91c-.79.08-1.58.15-2.37.24a6,6,0,0,0-3.79,2.18,2.92,2.92,0,0,1-2.88,0,6,6,0,0,0-3.79-2.18C10,26.06,9.19,26,8.4,25.91A35.37,35.37,0,0,1,2.06,25L2.08,7c.54,0,1.27.14,2.17.29V21.21a1,1,0,0,0,.31.73,1,1,0,0,0,.72.3h.14a28.22,28.22,0,0,1,10.15,2.38h0l.15.05,0,0,.22,0,.21,0,.05,0,.16-.05h0a28.08,28.08,0,0,1,10.15-2.38h.13a1,1,0,0,0,.73-.3,1,1,0,0,0,.31-.73V7.31c.9-.14,1.62-.23,2.16-.28l0,18A35.37,35.37,0,0,1,23.6,25.91Z"/><rect class="cls-2" width="32" height="32"/></g></g></svg>