<svg xmlns="http://www.w3.org/2000/svg" viewBox="0 0 32 32"><defs><style>.cls-1{fill:#555;}.cls-2{fill:none;}</style></defs><g id="레이어_2" data-name="레이어 2"><g id="leaf-border"><path class="cls-1" d="M29.05,10.84C29.05,4.05,25.5,0,22.06,0a3.93,3.93,0,0,0-2.6,1,1,1,0,0,0-.3.72V28.92A2.92,2.92,0,0,0,22.1,32,2.87,2.87,0,0,0,25,29V20.58C26.68,19.59,29.05,16.48,29.05,10.84ZM21.18,2.26A1.8,1.8,0,0,1,22.06,2c2,0,5,2.8,5,8.82,0,5.54-2.52,7.79-3.11,8.07H21.18ZM23,29c0,.68-.31,1-.92,1a.93.93,0,0,1-.92-1.06v-8H23Z"/><path class="cls-1" d="M12.22.1a1,1,0,0,0-1,1v10.2a.93.93,0,0,1-.64.73H9V1.11a1,1,0,0,0-2,0V12H5.45A1.51,1.51,0,0,1,5,11.2V1.11a1,1,0,0,0-2,0V11.2A3.39,3.39,0,0,0,4.4,13.76V29A3.39,3.39,0,0,0,8,32,3.39,3.39,0,0,0,11.58,29V13.81a3,3,0,0,0,1.65-2.5V1.11A1,1,0,0,0,12.22.1ZM9.57,29A1.44,1.44,0,0,1,8,30a1.46,1.46,0,0,1-1.57-1V14.06H9.57Z"/><rect class="cls-2" width="32" height="32"/></g></g></svg>