<svg xmlns="http://www.w3.org/2000/svg" viewBox="0 0 32 32"><defs><style>.cls-1{fill:#555;}.cls-2{fill:none;}</style></defs><g id="레이어_2" data-name="레이어 2"><g id="leaf-border"><path class="cls-1" d="M31.31,13.05,16.68.25l0,0L16.57.17,16.48.12l-.09,0-.1,0L16.2,0l-.1,0h-.2l-.1,0-.09,0-.1,0-.09,0-.09.05-.09.06,0,0L.69,13.05a1,1,0,0,0,.68,1.82,1.06,1.06,0,0,0,.69-.26l.47-.41V31a1,1,0,0,0,1,1H28.44a1,1,0,0,0,1-1V14.2l.46.41a1.06,1.06,0,0,0,.69.26,1,1,0,0,0,.68-1.82ZM17,19.37a1.91,1.91,0,0,1,.71-1.31,3,3,0,0,1,2.64-.75A3.06,3.06,0,0,1,19.51,20c-1.11,1.08-2,.53-2.18.34a1.44,1.44,0,0,1-.29-.81ZM27.4,29.92H17V22.47a3.15,3.15,0,0,0,.95.21h.22A3.89,3.89,0,0,0,21,21.45a5.22,5.22,0,0,0,1.29-5.31,1,1,0,0,0-.57-.61A5.19,5.19,0,0,0,17,16a4.24,4.24,0,0,0-1.37-2.49,5.52,5.52,0,0,0-5.72-1.19,1,1,0,0,0-.58.59,5.52,5.52,0,0,0,1.26,5.69,4.13,4.13,0,0,0,3,1.36A3.73,3.73,0,0,0,15,19.69V29.92H4.61V12.38L16,2.42l11.4,10ZM14.63,17.52a1.78,1.78,0,0,1-2.56-.38,3.32,3.32,0,0,1-.92-3,3.35,3.35,0,0,1,3,.87C15.48,16.26,14.81,17.3,14.63,17.52Z"/><rect class="cls-2" width="32" height="32"/></g></g></svg>