<svg xmlns="http://www.w3.org/2000/svg" viewBox="0 0 212.26 25.16"><defs><style>.cls-1{fill:#fff;opacity:0.5;}.cls-2{fill:#c9caca;}.cls-3{fill:#e72723;}.cls-4{fill:#3c1900;}.cls-5{fill:#e67475;}.cls-6{fill:#4b83c4;}.cls-7{fill:#4594d1;stroke:#3c1900;stroke-linecap:round;stroke-linejoin:round;}.cls-8{fill:none;}</style></defs><g id="레이어_2" data-name="레이어 2"><g id="레이어_1-2" data-name="레이어 1"><rect class="cls-1" width="212.26" height="25.16" rx="12.58"/><path class="cls-2" d="M16.88,18.25l.17-.14L28.86,6.3a2.58,2.58,0,0,0-3.65-3.65L13.4,14.46l-.09.11a4.39,4.39,0,1,0,3.57,3.68Z"/><path class="cls-3" d="M16.72,18.41a1.15,1.15,0,0,0,.17-.14l6.19-6.19a2.58,2.58,0,1,0-3.65-3.65l-6.19,6.19-.09.11a4.38,4.38,0,1,0,3.57,3.68Z"/><path class="cls-4" d="M8.94,22.48a5.09,5.09,0,0,1,4.11-8.66L24.71,2.15A3.29,3.29,0,0,1,29.36,6.8L17.62,18.54a5.09,5.09,0,0,1-8.68,3.94ZM28.36,3.15a1.88,1.88,0,0,0-2.65,0L13.9,15a.27.27,0,0,1-.07.08.7.7,0,0,1-.64.22,3.68,3.68,0,1,0,2,6.22,3.64,3.64,0,0,0,1-3.13.74.74,0,0,1,.24-.64l.1-.07L28.36,5.8A1.87,1.87,0,0,0,28.36,3.15Z"/><ellipse class="cls-5" cx="12.25" cy="17" rx="1.23" ry="1.08" transform="translate(-2.64 2.26) rotate(-9.52)"/><path class="cls-2" d="M82.87,18.25l.17-.14L94.85,6.3A2.58,2.58,0,1,0,91.2,2.65L79.39,14.46l-.09.11a4.38,4.38,0,1,0,3.57,3.68Z"/><path class="cls-6" d="M82.71,18.41a2.09,2.09,0,0,0,.17-.14l6.19-6.19a2.58,2.58,0,1,0-3.65-3.65l-6.19,6.19-.09.11a4.38,4.38,0,1,0,3.57,3.68Z"/><path class="cls-4" d="M74.93,22.48A5.09,5.09,0,0,1,79,13.82L90.7,2.15A3.29,3.29,0,1,1,95.35,6.8L83.61,18.54a5.09,5.09,0,0,1-8.68,3.94ZM94.35,3.15a1.88,1.88,0,0,0-2.65,0L79.89,15a.27.27,0,0,1-.07.08.7.7,0,0,1-.64.22,3.68,3.68,0,1,0,1.95,6.22,3.62,3.62,0,0,0,1-3.13.71.71,0,0,1,.24-.64l.1-.07L94.35,5.8A1.88,1.88,0,0,0,94.35,3.15Z"/><ellipse class="cls-1" cx="78.23" cy="17" rx="1.23" ry="1.08" transform="translate(-1.73 13.17) rotate(-9.52)"/><path class="cls-7" d="M158.89,16.27a5.35,5.35,0,1,1-10.7,0c0-3,3.16-6.36,5.35-9.11C155.9,10.07,158.89,13.31,158.89,16.27Z"/><ellipse class="cls-1" cx="155.93" cy="17.81" rx="1.93" ry="1.31" transform="translate(77.15 153.55) rotate(-66.39)"/><path class="cls-7" d="M148.19,8.1a2.68,2.68,0,0,1-5.35,0c0-1.48,1.58-3.18,2.67-4.56C146.69,5,148.19,6.62,148.19,8.1Z"/><ellipse class="cls-1" cx="146.71" cy="8.87" rx="0.96" ry="0.65" transform="translate(79.81 139.74) rotate(-66.39)"/><rect class="cls-8" x="33.16" y="1.89" width="38.19" height="20.67"/><rect class="cls-8" x="100.48" y="1.89" width="38.19" height="20.67"/><rect class="cls-8" x="163.48" y="2.25" width="38.19" height="20.67"/></g></g></svg>