<svg xmlns="http://www.w3.org/2000/svg" viewBox="0 0 32 32"><defs><style>.cls-1{fill:#555;}.cls-2{fill:none;}</style></defs><g id="레이어_2" data-name="레이어 2"><g id="leaf-border"><path class="cls-1" d="M30.8,25.15,22.66,17a11.78,11.78,0,0,0,1.16-5.1,11.9,11.9,0,1,0-11.9,11.9,11.64,11.64,0,0,0,5-1.14l8.16,8.16A4,4,0,0,0,32,28,4,4,0,0,0,30.8,25.15ZM2.21,11.9a9.72,9.72,0,1,1,9.71,9.72A9.73,9.73,0,0,1,2.21,11.9ZM29.26,29.28a1.88,1.88,0,0,1-2.59,0l-7.76-7.76a12.23,12.23,0,0,0,2.59-2.59l7.76,7.76a1.85,1.85,0,0,1,0,2.59Z"/><rect class="cls-2" width="32" height="32"/></g></g></svg>