<svg xmlns="http://www.w3.org/2000/svg" viewBox="0 0 22.7 22.7"><defs><style>.cls-1{fill:#fff;}.cls-2{fill:#040000;}</style></defs><g id="레이어_2" data-name="레이어 2"><g id="레이어_1-2" data-name="레이어 1"><circle class="cls-1" cx="11.35" cy="11.35" r="11.35"/><g id="Layer_1" data-name="Layer 1"><path class="cls-2" d="M6.89,6.41H5.22V18.12H14.7V16.44h1.67V4.74H6.89Zm7.25,11.15H5.78V7h6.41v2h2v8.64Zm-1.4-10.2,1,1h-1ZM7.45,5.29h8.36v10.6H14.7V8.52L12.58,6.41H7.45Z"/><path class="cls-2" d="M10,8.36H6.61V11.7H10ZM9.4,11.15H7.17V8.92H9.4Z"/><rect class="cls-2" x="10.79" y="9.75" width="2.51" height="0.56"/><rect class="cls-2" x="10.79" y="11.15" width="2.51" height="0.56"/><rect class="cls-2" x="6.61" y="12.54" width="4.18" height="0.56"/><rect class="cls-2" x="11.63" y="12.54" width="1.67" height="0.56"/><rect class="cls-2" x="6.61" y="13.93" width="1.67" height="0.56"/><rect class="cls-2" x="9.12" y="13.93" width="4.18" height="0.56"/><rect class="cls-2" x="6.61" y="15.33" width="3.9" height="0.56"/><rect class="cls-2" x="11.35" y="15.33" width="1.95" height="0.56"/></g></g></g></svg>